<svg width="41" height="41" viewBox="0 0 41 41" fill="none" xmlns="http://www.w3.org/2000/svg">
<mask id="mask0_38_44" style="mask-type:alpha" maskUnits="userSpaceOnUse" x="0" y="0" width="41" height="41">
<rect width="41" height="41" fill="#D9D9D9"/>
</mask>
<g mask="url(#mask0_38_44)">
<path d="M3.4165 32.4584V22.2084C3.4165 21.4397 3.5731 20.7421 3.8863 20.1157C4.19949 19.4893 4.61234 18.9341 5.12484 18.4501V13.6667C5.12484 12.2431 5.6231 11.0331 6.61963 10.0365C7.61616 9.04001 8.82623 8.54175 10.2498 8.54175H17.0832C17.738 8.54175 18.3502 8.66275 18.9196 8.90477C19.4891 9.14678 20.0158 9.48133 20.4998 9.90841C20.9839 9.48133 21.5106 9.14678 22.08 8.90477C22.6495 8.66275 23.2616 8.54175 23.9165 8.54175H30.7498C32.1734 8.54175 33.3835 9.04001 34.38 10.0365C35.3766 11.0331 35.8748 12.2431 35.8748 13.6667V18.4501C36.3873 18.9341 36.8002 19.4893 37.1134 20.1157C37.4266 20.7421 37.5832 21.4397 37.5832 22.2084V32.4584H34.1665V29.0417H6.83317V32.4584H3.4165ZM22.2082 17.0834H32.4582V13.6667C32.4582 13.1827 32.2945 12.777 31.967 12.4496C31.6396 12.1221 31.2339 11.9584 30.7498 11.9584H23.9165C23.4325 11.9584 23.0267 12.1221 22.6993 12.4496C22.3719 12.777 22.2082 13.1827 22.2082 13.6667V17.0834ZM8.5415 17.0834H18.7915V13.6667C18.7915 13.1827 18.6278 12.777 18.3004 12.4496C17.9729 12.1221 17.5672 11.9584 17.0832 11.9584H10.2498C9.76581 11.9584 9.36008 12.1221 9.03265 12.4496C8.70522 12.777 8.5415 13.1827 8.5415 13.6667V17.0834ZM6.83317 25.6251H34.1665V22.2084C34.1665 21.7244 34.0028 21.3187 33.6754 20.9912C33.3479 20.6638 32.9422 20.5001 32.4582 20.5001H8.5415C8.05748 20.5001 7.65175 20.6638 7.32432 20.9912C6.99689 21.3187 6.83317 21.7244 6.83317 22.2084V25.6251Z" fill="white"/>
</g>
</svg>
