<svg width="31" height="33" viewBox="0 0 31 33" fill="none" xmlns="http://www.w3.org/2000/svg">
<mask id="mask0_38_59" style="mask-type:alpha" maskUnits="userSpaceOnUse" x="0" y="0" width="31" height="33">
<rect width="31" height="33" fill="#D9D9D9"/>
</mask>
<g mask="url(#mask0_38_59)">
<path d="M15.5002 24.0625C17.1147 24.0625 18.4871 23.4609 19.6174 22.2578C20.7476 21.0547 21.3127 19.5938 21.3127 17.875C21.3127 16.1562 20.7476 14.6953 19.6174 13.4922C18.4871 12.2891 17.1147 11.6875 15.5002 11.6875C13.8856 11.6875 12.5132 12.2891 11.383 13.4922C10.2528 14.6953 9.68766 16.1562 9.68766 17.875C9.68766 19.5938 10.2528 21.0547 11.383 22.2578C12.5132 23.4609 13.8856 24.0625 15.5002 24.0625ZM15.5002 21.3125C14.596 21.3125 13.8318 20.9802 13.2075 20.3156C12.5831 19.651 12.271 18.8375 12.271 17.875C12.271 16.9125 12.5831 16.099 13.2075 15.4344C13.8318 14.7698 14.596 14.4375 15.5002 14.4375C16.4043 14.4375 17.1686 14.7698 17.7929 15.4344C18.4172 16.099 18.7293 16.9125 18.7293 17.875C18.7293 18.8375 18.4172 19.651 17.7929 20.3156C17.1686 20.9802 16.4043 21.3125 15.5002 21.3125ZM5.16683 28.875C4.45641 28.875 3.84825 28.6057 3.34235 28.0672C2.83645 27.5286 2.5835 26.8813 2.5835 26.125V9.625C2.5835 8.86875 2.83645 8.22135 3.34235 7.68281C3.84825 7.14427 4.45641 6.875 5.16683 6.875H9.23558L11.6252 4.125H19.3752L21.7647 6.875H25.8335C26.5439 6.875 27.1521 7.14427 27.658 7.68281C28.1639 8.22135 28.4168 8.86875 28.4168 9.625V26.125C28.4168 26.8813 28.1639 27.5286 27.658 28.0672C27.1521 28.6057 26.5439 28.875 25.8335 28.875H5.16683ZM5.16683 26.125H25.8335V9.625H20.6022L18.245 6.875H12.7554L10.3981 9.625H5.16683V26.125Z" fill="white"/>
</g>
</svg>
