<svg width="178" height="36" viewBox="0 0 178 36" fill="none" xmlns="http://www.w3.org/2000/svg">
<path d="M17.0489 3.67705C17.3483 2.75574 18.6517 2.75574 18.9511 3.67705L21.6484 11.9785C21.7822 12.3905 22.1662 12.6695 22.5994 12.6695H31.328C32.2968 12.6695 32.6995 13.9091 31.9158 14.4785L24.8542 19.609C24.5037 19.8637 24.3571 20.315 24.4909 20.7271L27.1882 29.0285C27.4876 29.9498 26.4331 30.7159 25.6494 30.1465L18.5878 25.016C18.2373 24.7613 17.7627 24.7613 17.4122 25.016L10.3506 30.1465C9.56689 30.7159 8.51241 29.9498 8.81176 29.0285L11.5091 20.7271C11.6429 20.315 11.4963 19.8637 11.1458 19.609L4.08417 14.4785C3.30046 13.9091 3.70323 12.6695 4.67196 12.6695H13.4006C13.8338 12.6695 14.2178 12.3905 14.3516 11.9785L17.0489 3.67705Z" fill="#FFCC47"/>
<path d="M53.0489 3.67705C53.3483 2.75574 54.6517 2.75574 54.9511 3.67705L57.6484 11.9785C57.7822 12.3905 58.1662 12.6695 58.5994 12.6695H67.328C68.2968 12.6695 68.6995 13.9091 67.9158 14.4785L60.8542 19.609C60.5037 19.8637 60.3571 20.315 60.4909 20.7271L63.1882 29.0285C63.4876 29.9498 62.4331 30.7159 61.6494 30.1465L54.5878 25.016C54.2373 24.7613 53.7627 24.7613 53.4122 25.016L46.3506 30.1465C45.5669 30.7159 44.5124 29.9498 44.8118 29.0285L47.5091 20.7271C47.6429 20.315 47.4963 19.8637 47.1458 19.609L40.0842 14.4785C39.3005 13.9091 39.7032 12.6695 40.672 12.6695H49.4006C49.8338 12.6695 50.2178 12.3905 50.3516 11.9785L53.0489 3.67705Z" fill="#FFCC47"/>
<path d="M88.0489 3.67705C88.3483 2.75574 89.6517 2.75574 89.9511 3.67705L92.6484 11.9785C92.7822 12.3905 93.1662 12.6695 93.5994 12.6695H102.328C103.297 12.6695 103.7 13.9091 102.916 14.4785L95.8542 19.609C95.5037 19.8637 95.3571 20.315 95.4909 20.7271L98.1882 29.0285C98.4876 29.9498 97.4331 30.7159 96.6494 30.1465L89.5878 25.016C89.2373 24.7613 88.7627 24.7613 88.4122 25.016L81.3506 30.1465C80.5669 30.7159 79.5124 29.9498 79.8118 29.0285L82.5091 20.7271C82.6429 20.315 82.4963 19.8637 82.1458 19.609L75.0842 14.4785C74.3005 13.9091 74.7032 12.6695 75.672 12.6695H84.4006C84.8338 12.6695 85.2178 12.3905 85.3516 11.9785L88.0489 3.67705Z" fill="#FFCC47"/>
<path d="M123.049 3.67705C123.348 2.75574 124.652 2.75574 124.951 3.67705L127.648 11.9785C127.782 12.3905 128.166 12.6695 128.599 12.6695H137.328C138.297 12.6695 138.7 13.9091 137.916 14.4785L130.854 19.609C130.504 19.8637 130.357 20.315 130.491 20.7271L133.188 29.0285C133.488 29.9498 132.433 30.7159 131.649 30.1465L124.588 25.016C124.237 24.7613 123.763 24.7613 123.412 25.016L116.351 30.1465C115.567 30.7159 114.512 29.9498 114.812 29.0285L117.509 20.7271C117.643 20.315 117.496 19.8637 117.146 19.609L110.084 14.4785C109.3 13.9091 109.703 12.6695 110.672 12.6695H119.401C119.834 12.6695 120.218 12.3905 120.352 11.9785L123.049 3.67705Z" fill="#FFCC47"/>
<path d="M159.049 3.67705C159.348 2.75574 160.652 2.75574 160.951 3.67705L163.648 11.9785C163.782 12.3905 164.166 12.6695 164.599 12.6695H173.328C174.297 12.6695 174.7 13.9091 173.916 14.4785L166.854 19.609C166.504 19.8637 166.357 20.315 166.491 20.7271L169.188 29.0285C169.488 29.9498 168.433 30.7159 167.649 30.1465L160.588 25.016C160.237 24.7613 159.763 24.7613 159.412 25.016L152.351 30.1465C151.567 30.7159 150.512 29.9498 150.812 29.0285L153.509 20.7271C153.643 20.315 153.496 19.8637 153.146 19.609L146.084 14.4785C145.3 13.9091 145.703 12.6695 146.672 12.6695H155.401C155.834 12.6695 156.218 12.3905 156.352 11.9785L159.049 3.67705Z" fill="#FFCC47"/>
</svg>
